<svg width="100" height="100" viewBox="0 0 100 100" fill="none" xmlns="http://www.w3.org/2000/svg">
<path d="M37.7991 84.238L19.2593 68.6192C18.4373 67.9268 17.8603 66.9878 17.6139 65.9416L13.4811 48.3953C13.0901 46.7356 13.572 44.991 14.7594 43.7672L41.1612 16.5566C42.6702 15.0013 45.0093 14.5952 46.9543 15.5507L83.5336 33.5203C85.6429 34.5565 86.7459 36.9217 86.184 39.2036L78.4569 70.5835C78.0486 72.2416 76.8223 73.5767 75.2047 74.1241L42.6233 85.1502C40.9664 85.711 39.1369 85.365 37.7991 84.238Z" fill="#06277B"/>
<path d="M22.5067 73.4975L14.1709 50.5877C13.8008 49.5706 13.7659 48.4617 14.0714 47.4263L19.1622 30.1681C19.6476 28.5223 20.9357 27.2455 22.5761 26.784L58.9033 16.5635C60.9708 15.9818 63.1814 16.8049 64.3862 18.6049L87.1875 52.6725C88.5031 54.6382 88.2832 57.2566 86.6597 58.9574L64.4704 82.2044C63.2934 83.4374 61.5707 83.9762 59.9021 83.6333L26.208 76.7072C24.5071 76.3576 23.1049 75.1417 22.5067 73.4975Z" fill="#06277B" fill-opacity="0.44"/>
<path d="M63.6714 64.7895H36.4069C34.7825 64.7895 33.2421 65.511 32.2022 66.7589L30.6039 68.6769C29.7584 69.6914 28.1072 69.0936 28.1072 67.773V47.3182C28.1072 44.2953 30.5576 41.8448 33.5805 41.8448L37.285 41.8448" stroke="url(#paint0_linear)" stroke-width="2.08696" stroke-linecap="round"/>
<mask id="mask0" mask-type="alpha" maskUnits="userSpaceOnUse" x="43" y="34" width="36" height="29">
<path d="M43.0212 40.4344C43.0212 37.4116 45.4717 34.9611 48.4945 34.9611H73.1121C76.1349 34.9611 78.5854 37.4115 78.5854 40.4344V60.8892C78.5854 62.2098 76.9342 62.8076 76.0887 61.7931L74.4904 59.8751C73.4505 58.6272 71.9101 57.9057 70.2857 57.9057H48.4945C45.4717 57.9057 43.0212 55.4552 43.0212 52.4324V40.4344Z" fill="url(#paint1_linear)"/>
</mask>
<g mask="url(#mask0)">
<path d="M43.0212 38.9611C43.0212 36.7519 44.8121 34.9611 47.0212 34.9611H74.5854C76.7946 34.9611 78.5854 36.7519 78.5854 38.9611V57.1281C78.5854 59.7223 75.3417 60.8967 73.6809 58.9037C73.154 58.2714 72.3733 57.9057 71.5501 57.9057H47.0212C44.8121 57.9057 43.0212 56.1149 43.0212 53.9057V38.9611Z" fill="url(#paint2_linear)"/>
<path d="M53.5 51.5006C45.9241 48.1864 41.9406 52.6067 40.4462 56.2052C40.105 57.0267 40.1858 57.9464 40.5279 58.7675L41.5584 61.2406C42.1363 62.6274 43.4426 63.5734 44.9405 63.6899L82.8132 66.6357C85.2705 66.8268 87.315 64.7735 87.0869 62.3195C85.9626 50.2268 84.0557 34.4069 83 42.5002C81.5 54.0002 69.5 58.5001 53.5 51.5006Z" fill="url(#paint3_linear)"/>
<path d="M62.5242 46.4325C62.5242 47.0661 62.0105 47.5797 61.3769 47.5797C60.7433 47.5797 60.2297 47.0661 60.2297 46.4325C60.2297 45.7989 60.7433 45.2853 61.3769 45.2853C62.0105 45.2853 62.5242 45.7989 62.5242 46.4325Z" fill="#15AD6D" stroke="#15AD6D" stroke-width="2.08696"/>
<path d="M68.2603 46.4325C68.2603 47.0661 67.7467 47.5797 67.1131 47.5797C66.4795 47.5797 65.9659 47.0661 65.9659 46.4325C65.9659 45.7989 66.4795 45.2853 67.1131 45.2853C67.7467 45.2853 68.2603 45.7989 68.2603 46.4325Z" fill="#15AD6D" stroke="#15AD6D" stroke-width="2.08696"/>
<path d="M56.788 46.4335C56.788 47.0671 56.2744 47.5807 55.6408 47.5807C55.0072 47.5807 54.4935 47.0671 54.4935 46.4335C54.4935 45.7999 55.0072 45.2863 55.6408 45.2863C56.2744 45.2863 56.788 45.7999 56.788 46.4335Z" fill="#15AD6D" stroke="#15AD6D" stroke-width="2.08696"/>
</g>
<defs>
<linearGradient id="paint0_linear" x1="63.9687" y1="71.9942" x2="46.1556" y2="47.9666" gradientUnits="userSpaceOnUse">
<stop stop-color="#00FFF0"/>
<stop offset="1" stop-color="#078EDA"/>
</linearGradient>
<linearGradient id="paint1_linear" x1="47.7593" y1="30.4611" x2="76.7593" y2="64.9611" gradientUnits="userSpaceOnUse">
<stop stop-color="#FF5E98"/>
<stop offset="1" stop-color="#DE01F1"/>
</linearGradient>
<linearGradient id="paint2_linear" x1="51.5" y1="36.5001" x2="78.9932" y2="65.0066" gradientUnits="userSpaceOnUse">
<stop stop-color="#88F8FF"/>
<stop offset="1" stop-color="#80FF00"/>
</linearGradient>
<linearGradient id="paint3_linear" x1="91.6561" y1="19.9954" x2="70.4407" y2="70.142" gradientUnits="userSpaceOnUse">
<stop stop-color="#00D0FE"/>
<stop offset="1" stop-color="#06A5FF" stop-opacity="0"/>
</linearGradient>
</defs>
</svg>
