<svg width="100" height="100" viewBox="0 0 100 100" fill="none" xmlns="http://www.w3.org/2000/svg">
<path d="M37.8173 84.312L19.2974 68.6815C18.4766 67.9888 17.9007 67.0503 17.6549 66.0048L13.5237 48.4334C13.134 46.7758 13.6147 45.0337 14.7994 43.8106L41.1761 16.5762C42.6858 15.0174 45.0286 14.6104 46.9756 15.5686L83.5168 33.5522C85.6233 34.589 86.7248 36.9518 86.1644 39.2318L78.4417 70.6508C78.0342 72.3089 76.8087 73.6444 75.1917 74.1926L42.6476 85.2262C40.9885 85.7887 39.1561 85.4419 37.8173 84.312Z" fill="#06277B"/>
<path d="M22.4983 73.5108L14.1745 50.6037C13.805 49.587 13.7705 48.4787 14.0762 47.4438L19.1755 30.1765C19.6611 28.5321 20.9483 27.2561 22.5875 26.7941L58.9145 16.5558C60.9834 15.9727 63.196 16.7961 64.401 18.5976L87.1828 52.6568C88.4971 54.6217 88.277 57.2385 86.6544 58.9388L64.4533 82.2029C63.2765 83.4361 61.5538 83.9753 59.8851 83.633L26.2019 76.7224C24.4995 76.3731 23.0962 75.1563 22.4983 73.5108Z" fill="#06277B" fill-opacity="0.44"/>
<rect x="30.8158" y="31.842" width="34.4348" height="43.0435" rx="6.06732" stroke="url(#paint0_linear)" stroke-width="2.08696"/>
<mask id="mask0" mask-type="alpha" maskUnits="userSpaceOnUse" x="38" y="24" width="35" height="45">
<rect x="38.294" y="24.9719" width="34.4348" height="43.0435" rx="6.06732" fill="url(#paint1_linear)"/>
</mask>
<g mask="url(#mask0)">
<rect x="38.294" y="24.9719" width="34.4348" height="43.0435" rx="4" fill="url(#paint2_linear)"/>
<path d="M52 55.5002C42.8058 51.2862 37.0054 54.9908 35.2137 59.4111C35.0577 59.7961 35 60.2114 35 60.6269V77.0758C35 79.4439 37.0459 81.2936 39.402 81.0556L81.0101 76.8527C83.0071 76.651 84.5491 75.0106 84.5615 73.0034C84.6998 50.4956 80.4383 14.5796 79.5 31.0002C78.5 48.5002 64 61.0002 52 55.5002Z" fill="url(#paint3_linear)"/>
<path d="M45.294 32.9719H60.1937" stroke="#15AD6D" stroke-width="2.08696" stroke-linecap="round"/>
<path d="M45.294 41.9124H52.5783" stroke="#15AD6D" stroke-width="2.08696" stroke-linecap="round"/>
</g>
<defs>
<linearGradient id="paint0_linear" x1="30.5279" y1="75.3492" x2="57.2597" y2="51.1555" gradientUnits="userSpaceOnUse">
<stop stop-color="#00FFF0"/>
<stop offset="1" stop-color="#078EDA"/>
</linearGradient>
<linearGradient id="paint1_linear" x1="42.8817" y1="18.4782" x2="84.3064" y2="51.5442" gradientUnits="userSpaceOnUse">
<stop stop-color="#FF5E98"/>
<stop offset="1" stop-color="#DE01F1"/>
</linearGradient>
<linearGradient id="paint2_linear" x1="49.046" y1="30.4128" x2="81.0423" y2="55.3042" gradientUnits="userSpaceOnUse">
<stop stop-color="#88FFDB"/>
<stop offset="1" stop-color="#80FF00"/>
</linearGradient>
<linearGradient id="paint3_linear" x1="88.9015" y1="-14.6898" x2="29.4474" y2="56.9684" gradientUnits="userSpaceOnUse">
<stop stop-color="#00D0FE"/>
<stop offset="1" stop-color="#06A5FF" stop-opacity="0"/>
</linearGradient>
</defs>
</svg>
